<svg width="657.9px" height="122px" xmlns="http://www.w3.org/2000/svg" viewBox="-78.94687499999998 14 657.89375 122" style="background: none" preserveAspectRatio="xMidYMid"><defs><linearGradient id="editing-gradient-gradient" x1="0" x2="1" y1="0.5" y2="0.5" gradientUnits="objectBoundingBox"><stop offset="0" stop-color="#e4934b"></stop><stop offset="1" stop-color="#e2bb8b"></stop></linearGradient></defs><g><g transform="matrix(1.4,0,0,2.2,-59.3,297.3)"><path d="M 1.2 -85.3 L -12.8 -85.3 L -4.6 -127.5 L 9.4 -127.5 L 1.2 -85.3 Z M 56.9 -84 L 56.9 -84 L 56.9 -84 Q 49.2 -84 49.2 -90 L 49.2 -90 L 49.2 -90 Q 49.2 -92.6 50.3 -97.7 L 50.3 -97.7 L 50.3 -97.7 Q 51.4 -102.8 51.8 -104.9 L 51.8 -104.9 L 51.8 -104.9 Q 52.7 -109.5 52.7 -111 L 52.7 -111 L 52.7 -111 Q 52.7 -114.3 50.3 -114.3 L 50.3 -114.3 L 50.3 -114.3 Q 48.7 -114.3 47.1 -112.1 L 47.1 -112.1 L 47.1 -112.1 Q 45.6 -109.9 44.9 -105.4 L 44.9 -105.4 L 40.9 -85.3 L 28.5 -84 L 31.9 -101.4 L 31.9 -101.4 Q 32.5 -104.3 33 -107.6 L 33 -107.6 L 33 -107.6 Q 33.5 -110.8 33.5 -111.3 L 33.5 -111.3 L 33.5 -111.3 Q 33.5 -114.3 31.3 -114.3 L 31.3 -114.3 L 31.3 -114.3 Q 29.9 -114.3 28.3 -112.1 L 28.3 -112.1 L 28.3 -112.1 Q 26.7 -109.9 25.8 -105.4 L 25.8 -105.4 L 21.9 -85.3 L 9.3 -84 L 16 -117.9 L 26.4 -119.2 L 25.3 -112.7 L 25.3 -112.7 Q 27 -116.2 30.1 -117.7 L 30.1 -117.7 L 30.1 -117.7 Q 33.1 -119.2 37.9 -119.2 L 37.9 -119.2 L 37.9 -119.2 Q 40.7 -119.2 42.5 -117.9 L 42.5 -117.9 L 42.5 -117.9 Q 44.3 -116.5 44.8 -114.3 L 44.8 -114.3 L 44.8 -114.3 Q 45.9 -116.6 48.7 -117.9 L 48.7 -117.9 L 48.7 -117.9 Q 51.5 -119.2 54.9 -119.2 L 54.9 -119.2 L 54.9 -119.2 Q 58.3 -119.2 60 -118.5 L 60 -118.5 L 60 -118.5 Q 61.7 -117.7 62.8 -116.5 L 62.8 -116.5 L 62.8 -116.5 Q 64.5 -114.3 64.5 -110.2 L 64.5 -110.2 L 64.5 -110.2 Q 64.5 -106.1 62.8 -97.8 L 62.8 -97.8 L 62.8 -97.8 Q 61.9 -93.7 61.9 -92.2 L 61.9 -92.2 L 61.9 -92.2 Q 61.9 -90.7 62.7 -89.8 L 62.7 -89.8 L 62.7 -89.8 Q 63.6 -88.9 64.9 -88.7 L 64.9 -88.7 L 64.9 -88.7 Q 64.2 -86.6 62 -85.3 L 62 -85.3 L 62 -85.3 Q 59.8 -84 56.9 -84 Z M 72.6 -87.2 L 72.6 -87.2 L 72.6 -87.2 Q 71.1 -88.9 70.4 -91.5 L 70.4 -91.5 L 70.4 -91.5 Q 69.7 -94.1 69.7 -98.4 L 69.7 -98.4 L 69.7 -98.4 Q 69.7 -102.7 71.2 -106.6 L 71.2 -106.6 L 71.2 -106.6 Q 72.7 -110.5 75.4 -113.3 L 75.4 -113.3 L 75.4 -113.3 Q 80.9 -119.2 90 -119.2 L 90 -119.2 L 90 -119.2 Q 93.2 -119.2 95.6 -118.1 L 95.6 -118.1 L 106.5 -119.2 L 101.8 -94.2 L 101.8 -94.2 Q 101.6 -93.5 101.6 -92.1 L 101.6 -92.1 L 101.6 -92.1 Q 101.6 -90.7 102.5 -89.8 L 102.5 -89.8 L 102.5 -89.8 Q 103.3 -88.9 104.6 -88.7 L 104.6 -88.7 L 104.6 -88.7 Q 104 -86.6 101.6 -85.3 L 101.6 -85.3 L 101.6 -85.3 Q 99.3 -84 96.7 -84 L 96.7 -84 L 96.7 -84 Q 94.1 -84 92.3 -85 L 92.3 -85 L 92.3 -85 Q 90.5 -86 90 -87.7 L 90 -87.7 L 90 -87.7 Q 89 -86.1 86.8 -85 L 86.8 -85 L 86.8 -85 Q 84.6 -84 81.7 -84 L 81.7 -84 L 81.7 -84 Q 78.8 -84 76.5 -84.8 L 76.5 -84.8 L 76.5 -84.8 Q 74.1 -85.5 72.6 -87.2 Z M 86.1 -113.2 L 86.1 -113.2 L 86.1 -113.2 Q 85.4 -112 84.7 -110.1 L 84.7 -110.1 L 84.7 -110.1 Q 84.1 -108.1 83 -102.9 L 83 -102.9 L 83 -102.9 Q 82 -97.7 82 -94 L 82 -94 L 82 -94 Q 82 -90.3 82.5 -89.2 L 82.5 -89.2 L 82.5 -89.2 Q 83.1 -88.1 84.1 -88.1 L 84.1 -88.1 L 84.1 -88.1 Q 86.2 -88.1 87.7 -90.1 L 87.7 -90.1 L 87.7 -90.1 Q 89.2 -92 89.8 -95.5 L 89.8 -95.5 L 93.2 -114.2 L 93.2 -114.2 Q 91.8 -115.4 90.2 -115.4 L 90.2 -115.4 L 90.2 -115.4 Q 88.7 -115.4 87.8 -114.9 L 87.8 -114.9 L 87.8 -114.9 Q 86.8 -114.3 86.1 -113.2 Z M 114.3 -112 L 114.3 -112 L 114.3 -112 Q 116.5 -115.1 119.8 -117.2 L 119.8 -117.2 L 119.8 -117.2 Q 123 -119.2 127.1 -119.2 L 127.1 -119.2 L 127.1 -119.2 Q 131.1 -119.2 133 -117.9 L 133 -117.9 L 145.6 -119.2 L 141.2 -94.6 L 141.2 -94.6 Q 139 -82.1 134.2 -77.2 L 134.2 -77.2 L 134.2 -77.2 Q 129.7 -72.5 120.9 -72.5 L 120.9 -72.5 L 120.9 -72.5 Q 114.2 -72.5 110.3 -74.6 L 110.3 -74.6 L 110.3 -74.6 Q 106.5 -76.7 106.5 -80.2 L 106.5 -80.2 L 106.5 -80.2 Q 106.5 -82.9 108.5 -84.4 L 108.5 -84.4 L 108.5 -84.4 Q 110.4 -85.9 113.5 -85.9 L 113.5 -85.9 L 113.5 -85.9 Q 116.2 -85.9 118.2 -84.6 L 118.2 -84.6 L 118.2 -84.6 Q 119.5 -84 120 -83.1 L 120 -83.1 L 120 -83.1 Q 118.6 -81.8 118.6 -79.7 L 118.6 -79.7 L 118.6 -79.7 Q 118.6 -77 121.1 -77 L 121.1 -77 L 121.1 -77 Q 125.4 -77 127.8 -87.1 L 127.8 -87.1 L 127.8 -87.1 Q 128.6 -89.8 129.1 -92.6 L 129.1 -92.6 L 129.1 -92.6 Q 126.2 -89.1 119.7 -89.1 L 119.7 -89.1 L 119.7 -89.1 Q 115.2 -89.1 112.6 -91.2 L 112.6 -91.2 L 112.6 -91.2 Q 109.9 -93.4 109.9 -98.5 L 109.9 -98.5 L 109.9 -98.5 Q 109.9 -101.7 111 -105.3 L 111 -105.3 L 111 -105.3 Q 112.1 -109 114.3 -112 Z M 122.6 -98.3 L 122.6 -98.3 L 122.6 -98.3 Q 122.6 -94 124.8 -94 L 124.8 -94 L 124.8 -94 Q 126.4 -94 127.8 -95.7 L 127.8 -95.7 L 127.8 -95.7 Q 129 -97 129.4 -99 L 129.4 -99 L 132.7 -115.4 L 132.7 -115.4 Q 132.4 -115.5 132.1 -115.6 L 132.1 -115.6 L 132.1 -115.6 Q 131.4 -115.9 130.6 -115.9 L 130.6 -115.9 L 130.6 -115.9 Q 126.7 -115.9 124.4 -109.5 L 124.4 -109.5 L 124.4 -109.5 Q 122.6 -104.5 122.6 -98.3 Z M 174 -96.1 L 174 -96.1 L 174 -96.1 Q 175.6 -95 175.6 -92.6 L 175.6 -92.6 L 175.6 -92.6 Q 175.6 -90.2 174.4 -88.7 L 174.4 -88.7 L 174.4 -88.7 Q 173.2 -87.1 171.2 -86.1 L 171.2 -86.1 L 171.2 -86.1 Q 167.1 -84 162.7 -84 L 162.7 -84 L 162.7 -84 Q 158.2 -84 155.7 -85 L 155.7 -85 L 155.7 -85 Q 153.1 -85.9 151.3 -87.7 L 151.3 -87.7 L 151.3 -87.7 Q 147.9 -91.1 147.9 -97.3 L 147.9 -97.3 L 147.9 -97.3 Q 147.9 -107 153.2 -112.9 L 153.2 -112.9 L 153.2 -112.9 Q 158.8 -119.2 168.6 -119.2 L 168.6 -119.2 L 168.6 -119.2 Q 174.7 -119.2 177.7 -116.6 L 177.7 -116.6 L 177.7 -116.6 Q 179.9 -114.7 179.9 -111.6 L 179.9 -111.6 L 179.9 -111.6 Q 179.9 -100.3 160.5 -100.3 L 160.5 -100.3 L 160.5 -100.3 Q 160.2 -98.7 160.2 -97.3 L 160.2 -97.3 L 160.2 -97.3 Q 160.2 -94.3 161.5 -93.2 L 161.5 -93.2 L 161.5 -93.2 Q 162.9 -92.1 165.3 -92.1 L 165.3 -92.1 L 165.3 -92.1 Q 167.7 -92.1 170.3 -93.2 L 170.3 -93.2 L 170.3 -93.2 Q 172.9 -94.3 174 -96.1 Z M 160.9 -103.1 L 160.9 -103.1 L 160.9 -103.1 Q 165.5 -103.1 168.1 -105.9 L 168.1 -105.9 L 168.1 -105.9 Q 170.7 -108.6 170.7 -112.9 L 170.7 -112.9 L 170.7 -112.9 Q 170.7 -114.3 170.2 -115.1 L 170.2 -115.1 L 170.2 -115.1 Q 169.6 -115.9 168.6 -115.9 L 168.6 -115.9 L 168.6 -115.9 Q 167.5 -115.9 166.5 -115.5 L 166.5 -115.5 L 166.5 -115.5 Q 165.6 -115.1 164.6 -113.7 L 164.6 -113.7 L 164.6 -113.7 Q 162.3 -110.5 160.9 -103.1 Z M 201.3 -107.7 L 201.3 -107.7 L 201.3 -107.7 Q 202.2 -110.1 202.2 -112.2 L 202.2 -112.2 L 202.2 -112.2 Q 202.2 -115.9 199.1 -115.9 L 199.1 -115.9 L 199.1 -115.9 Q 197.5 -115.9 196.2 -114.5 L 196.2 -114.5 L 196.2 -114.5 Q 194.9 -113.1 194.9 -111.3 L 194.9 -111.3 L 194.9 -111.3 Q 194.9 -110 195.9 -109 L 195.9 -109 L 195.9 -109 Q 197.4 -107.6 201.1 -105.3 L 201.1 -105.3 L 201.1 -105.3 Q 204.9 -102.9 206.3 -101.1 L 206.3 -101.1 L 206.3 -101.1 Q 207.8 -99.2 207.8 -96.6 L 207.8 -96.6 L 207.8 -96.6 Q 207.8 -94 206.5 -91.6 L 206.5 -91.6 L 206.5 -91.6 Q 205.3 -89.3 203 -87.6 L 203 -87.6 L 203 -87.6 Q 198.2 -84 190.6 -84 L 190.6 -84 L 190.6 -84 Q 186.4 -84 183.2 -86.2 L 183.2 -86.2 L 183.2 -86.2 Q 180 -88.3 180 -90.8 L 180 -90.8 L 180 -90.8 Q 180 -93.3 181.8 -94.8 L 181.8 -94.8 L 181.8 -94.8 Q 183.7 -96.2 186.3 -96.2 L 186.3 -96.2 L 186.3 -96.2 Q 189 -96.2 190.7 -95.2 L 190.7 -95.2 L 190.7 -95.2 Q 189.9 -93.1 189.9 -91.7 L 189.9 -91.7 L 189.9 -91.7 Q 189.9 -87.5 193.4 -87.5 L 193.4 -87.5 L 193.4 -87.5 Q 195 -87.5 196 -88.4 L 196 -88.4 L 196 -88.4 Q 197 -89.4 197 -91 L 197 -91 L 197 -91 Q 197 -94.3 191.5 -97.8 L 191.5 -97.8 L 191.5 -97.8 Q 187 -100.7 186 -101.9 L 186 -101.9 L 186 -101.9 Q 184.3 -103.9 184.3 -106.5 L 184.3 -106.5 L 184.3 -106.5 Q 184.3 -109 185.5 -111.5 L 185.5 -111.5 L 185.5 -111.5 Q 186.7 -113.9 189 -115.6 L 189 -115.6 L 189 -115.6 Q 193.6 -119.2 201.8 -119.2 L 201.8 -119.2 L 201.8 -119.2 Q 205.9 -119.2 208.4 -117.5 L 208.4 -117.5 L 208.4 -117.5 Q 210.9 -115.9 210.9 -113.1 L 210.9 -113.1 L 210.9 -113.1 Q 210.9 -110.2 209.2 -108.6 L 209.2 -108.6 L 209.2 -108.6 Q 207.5 -107 204.4 -107 L 204.4 -107 L 204.4 -107 Q 202.3 -107 201.3 -107.7 Z M 252.3 -105.9 L 265.3 -107 L 265.3 -107 Q 260.6 -96.9 260.6 -85.2 L 260.6 -85.2 L 260.6 -85.2 Q 258.9 -84 256.4 -84 L 256.4 -84 L 256.4 -84 Q 253.9 -84 252.3 -85.2 L 252.3 -85.2 L 252.3 -85.2 Q 250.7 -86.4 250.3 -87.6 L 250.3 -87.6 L 250.3 -87.6 Q 248.7 -85.9 246.2 -85 L 246.2 -85 L 246.2 -85 Q 243.6 -84 240.8 -84 L 240.8 -84 L 240.8 -84 Q 238.1 -84 235.7 -84.9 L 235.7 -84.9 L 235.7 -84.9 Q 233.3 -85.8 231.4 -87.8 L 231.4 -87.8 L 231.4 -87.8 Q 227.3 -92.1 227.3 -100.4 L 227.3 -100.4 L 227.3 -100.4 Q 227.3 -113.2 234.2 -120.9 L 234.2 -120.9 L 234.2 -120.9 Q 241.2 -128.8 253.7 -128.8 L 253.7 -128.8 L 253.7 -128.8 Q 262.3 -128.8 265.4 -124.3 L 265.4 -124.3 L 265.4 -124.3 Q 266.3 -122.9 266.3 -121.2 L 266.3 -121.2 L 266.3 -121.2 Q 266.3 -119.5 265.6 -118.1 L 265.6 -118.1 L 265.6 -118.1 Q 264.9 -116.6 263.7 -115.5 L 263.7 -115.5 L 263.7 -115.5 Q 261 -112.9 257.6 -112.9 L 257.6 -112.9 L 257.6 -112.9 Q 256.2 -112.9 255 -113.4 L 255 -113.4 L 255 -113.4 Q 255.2 -115.3 255.2 -117.5 L 255.2 -117.5 L 255.2 -117.5 Q 255.2 -119.8 255 -120.8 L 255 -120.8 L 255 -120.8 Q 254.9 -121.8 254.5 -122.7 L 254.5 -122.7 L 254.5 -122.7 Q 253.7 -124.4 251.8 -124.4 L 251.8 -124.4 L 251.8 -124.4 Q 250 -124.4 248 -122.4 L 248 -122.4 L 248 -122.4 Q 246 -120.5 244.4 -117.3 L 244.4 -117.3 L 244.4 -117.3 Q 240.9 -110.1 240.9 -101.5 L 240.9 -101.5 L 240.9 -101.5 Q 240.9 -97.5 242.4 -94.7 L 242.4 -94.7 L 242.4 -94.7 Q 244.1 -91.6 247 -91.6 L 247 -91.6 L 247 -91.6 Q 248 -91.6 249 -92.1 L 249 -92.1 L 249 -92.1 Q 249.9 -92.6 250.3 -93 L 250.3 -93 L 252.3 -105.9 Z M 271.2 -87.2 L 271.2 -87.2 L 271.2 -87.2 Q 269.7 -88.9 269 -91.5 L 269 -91.5 L 269 -91.5 Q 268.3 -94.1 268.3 -98.4 L 268.3 -98.4 L 268.3 -98.4 Q 268.3 -102.7 269.8 -106.6 L 269.8 -106.6 L 269.8 -106.6 Q 271.3 -110.5 274 -113.3 L 274 -113.3 L 274 -113.3 Q 279.5 -119.2 288.6 -119.2 L 288.6 -119.2 L 288.6 -119.2 Q 291.8 -119.2 294.2 -118.1 L 294.2 -118.1 L 305.1 -119.2 L 300.4 -94.2 L 300.4 -94.2 Q 300.2 -93.5 300.2 -92.1 L 300.2 -92.1 L 300.2 -92.1 Q 300.2 -90.7 301.1 -89.8 L 301.1 -89.8 L 301.1 -89.8 Q 301.9 -88.9 303.2 -88.7 L 303.2 -88.7 L 303.2 -88.7 Q 302.6 -86.6 300.2 -85.3 L 300.2 -85.3 L 300.2 -85.3 Q 297.9 -84 295.3 -84 L 295.3 -84 L 295.3 -84 Q 292.6 -84 290.9 -85 L 290.9 -85 L 290.9 -85 Q 289.1 -86 288.6 -87.7 L 288.6 -87.7 L 288.6 -87.7 Q 287.6 -86.1 285.4 -85 L 285.4 -85 L 285.4 -85 Q 283.2 -84 280.3 -84 L 280.3 -84 L 280.3 -84 Q 277.4 -84 275 -84.8 L 275 -84.8 L 275 -84.8 Q 272.7 -85.5 271.2 -87.2 Z M 284.7 -113.2 L 284.7 -113.2 L 284.7 -113.2 Q 283.9 -112 283.3 -110.1 L 283.3 -110.1 L 283.3 -110.1 Q 282.7 -108.1 281.6 -102.9 L 281.6 -102.9 L 281.6 -102.9 Q 280.6 -97.7 280.6 -94 L 280.6 -94 L 280.6 -94 Q 280.6 -90.3 281.1 -89.2 L 281.1 -89.2 L 281.1 -89.2 Q 281.7 -88.1 282.7 -88.1 L 282.7 -88.1 L 282.7 -88.1 Q 284.8 -88.1 286.3 -90.1 L 286.3 -90.1 L 286.3 -90.1 Q 287.8 -92 288.4 -95.5 L 288.4 -95.5 L 291.8 -114.2 L 291.8 -114.2 Q 290.4 -115.4 288.8 -115.4 L 288.8 -115.4 L 288.8 -115.4 Q 287.3 -115.4 286.3 -114.9 L 286.3 -114.9 L 286.3 -114.9 Q 285.4 -114.3 284.7 -113.2 Z M 323.9 -88.8 L 323.9 -88.8 L 323.9 -88.8 Q 321.9 -84 315.6 -84 L 315.6 -84 L 315.6 -84 Q 312.4 -84 310.3 -86.2 L 310.3 -86.2 L 310.3 -86.2 Q 308.6 -88.1 308.6 -90.2 L 308.6 -90.2 L 308.6 -90.2 Q 308.6 -95 310.9 -105.5 L 310.9 -105.5 L 315.6 -130.1 L 328.6 -131.4 L 322.3 -99 L 322.3 -99 Q 321.3 -94.2 321.3 -92.6 L 321.3 -92.6 L 321.3 -92.6 Q 321.3 -88.9 323.9 -88.8 Z M 344.6 -88.8 L 344.6 -88.8 L 344.6 -88.8 Q 342.6 -84 336.3 -84 L 336.3 -84 L 336.3 -84 Q 333.1 -84 331 -86.2 L 331 -86.2 L 331 -86.2 Q 329.4 -88.1 329.4 -90.2 L 329.4 -90.2 L 329.4 -90.2 Q 329.4 -95 331.6 -105.5 L 331.6 -105.5 L 336.3 -130.1 L 349.3 -131.4 L 343.1 -99 L 343.1 -99 Q 342 -94.2 342 -92.6 L 342 -92.6 L 342 -92.6 Q 342 -88.9 344.6 -88.8 Z M 376 -96.1 L 376 -96.1 L 376 -96.1 Q 377.6 -95 377.6 -92.6 L 377.6 -92.6 L 377.6 -92.6 Q 377.6 -90.2 376.4 -88.7 L 376.4 -88.7 L 376.4 -88.7 Q 375.1 -87.1 373.2 -86.1 L 373.2 -86.1 L 373.2 -86.1 Q 369.1 -84 364.6 -84 L 364.6 -84 L 364.6 -84 Q 360.2 -84 357.6 -85 L 357.6 -85 L 357.6 -85 Q 355 -85.9 353.3 -87.7 L 353.3 -87.7 L 353.3 -87.7 Q 349.9 -91.1 349.9 -97.3 L 349.9 -97.3 L 349.9 -97.3 Q 349.9 -107 355.2 -112.9 L 355.2 -112.9 L 355.2 -112.9 Q 360.8 -119.2 370.6 -119.2 L 370.6 -119.2 L 370.6 -119.2 Q 376.7 -119.2 379.7 -116.6 L 379.7 -116.6 L 379.7 -116.6 Q 381.9 -114.7 381.9 -111.6 L 381.9 -111.6 L 381.9 -111.6 Q 381.9 -100.3 362.5 -100.3 L 362.5 -100.3 L 362.5 -100.3 Q 362.2 -98.7 362.2 -97.3 L 362.2 -97.3 L 362.2 -97.3 Q 362.2 -94.3 363.5 -93.2 L 363.5 -93.2 L 363.5 -93.2 Q 364.8 -92.1 367.3 -92.1 L 367.3 -92.1 L 367.3 -92.1 Q 369.7 -92.1 372.3 -93.2 L 372.3 -93.2 L 372.3 -93.2 Q 374.9 -94.3 376 -96.1 Z M 362.9 -103.1 L 362.9 -103.1 L 362.9 -103.1 Q 367.5 -103.1 370.1 -105.9 L 370.1 -105.9 L 370.1 -105.9 Q 372.7 -108.6 372.7 -112.9 L 372.7 -112.9 L 372.7 -112.9 Q 372.7 -114.3 372.2 -115.1 L 372.2 -115.1 L 372.2 -115.1 Q 371.6 -115.9 370.5 -115.9 L 370.5 -115.9 L 370.5 -115.9 Q 369.4 -115.9 368.5 -115.5 L 368.5 -115.5 L 368.5 -115.5 Q 367.6 -115.1 366.6 -113.7 L 366.6 -113.7 L 366.6 -113.7 Q 364.3 -110.5 362.9 -103.1 Z M 404.1 -103.3 L 404.1 -103.3 L 404.1 -103.3 Q 406.4 -107.4 406.4 -111.5 L 406.4 -111.5 L 406.4 -111.5 Q 406.4 -114.3 404.5 -114.3 L 404.5 -114.3 L 404.5 -114.3 Q 402.9 -114.3 401.3 -111.7 L 401.3 -111.7 L 401.3 -111.7 Q 399.7 -109 399.1 -105.6 L 399.1 -105.6 L 395.8 -85.3 L 382.6 -84 L 389.1 -117.9 L 399.7 -119.2 L 398.5 -112.7 L 398.5 -112.7 Q 401.6 -119.2 408.7 -119.2 L 408.7 -119.2 L 408.7 -119.2 Q 412.4 -119.2 414.4 -117.3 L 414.4 -117.3 L 414.4 -117.3 Q 416.4 -115.4 416.4 -111.4 L 416.4 -111.4 L 416.4 -111.4 Q 416.4 -107.5 413.8 -105 L 413.8 -105 L 413.8 -105 Q 411.2 -102.5 406.8 -102.5 L 406.8 -102.5 L 406.8 -102.5 Q 404.9 -102.5 404.1 -103.3 Z M 437.8 -92.5 L 437.8 -92.5 L 437.8 -92.5 Q 434.5 -89.1 428.4 -89.1 L 428.4 -89.1 L 428.4 -89.1 Q 420.8 -89.1 419.2 -94.6 L 419.2 -94.6 L 419.2 -94.6 Q 418.7 -96.3 418.7 -98.1 L 418.7 -98.1 L 418.7 -98.1 Q 418.7 -100 419 -101.9 L 419 -101.9 L 422.1 -117.9 L 435 -119.2 L 431.5 -100.6 L 431.5 -100.6 Q 431.4 -99.7 431.2 -98.9 L 431.2 -98.9 L 431.2 -98.9 Q 431 -98 431 -97 L 431 -97 L 431 -97 Q 431 -96.1 431.3 -95.5 L 431.3 -95.5 L 431.3 -95.5 Q 431.7 -94.9 432.1 -94.5 L 432.1 -94.5 L 432.1 -94.5 Q 432.9 -94 434.2 -94 L 434.2 -94 L 434.2 -94 Q 435.6 -94 436.8 -95.7 L 436.8 -95.7 L 436.8 -95.7 Q 438 -97.3 438.6 -100.2 L 438.6 -100.2 L 442.1 -117.9 L 454.7 -119.2 L 449.9 -94.1 L 449.9 -94.1 Q 447.5 -81.8 442.7 -76.9 L 442.7 -76.9 L 442.7 -76.9 Q 440.2 -74.4 436.9 -73.4 L 436.9 -73.4 L 436.9 -73.4 Q 433.7 -72.4 429.5 -72.4 L 429.5 -72.4 L 429.5 -72.4 Q 422.8 -72.4 419 -74.5 L 419 -74.5 L 419 -74.5 Q 415.1 -76.6 415.1 -80.2 L 415.1 -80.2 L 415.1 -80.2 Q 415.1 -82.8 417.1 -84.3 L 417.1 -84.3 L 417.1 -84.3 Q 419.1 -85.8 422.2 -85.8 L 422.2 -85.8 L 422.2 -85.8 Q 424.9 -85.8 426.9 -84.6 L 426.9 -84.6 L 426.9 -84.6 Q 428.1 -83.9 428.7 -83 L 428.7 -83 L 428.7 -83 Q 427.2 -81.8 427.2 -79.7 L 427.2 -79.7 L 427.2 -79.7 Q 427.2 -76.8 429.8 -76.8 L 429.8 -76.8 L 429.8 -76.8 Q 434 -76.8 436.5 -86.6 L 436.5 -86.6 L 436.5 -86.6 Q 437.2 -89.4 437.8 -92.5 Z" fill="url(#editing-gradient-gradient)"></path></g></g><style>text {
  font-size: 64px;
  font-family: Arial Black;
  dominant-baseline: central;
  text-anchor: middle;
}</style></svg>